<?xml version="1.0" encoding="UTF-8"?>
<svg id="Livello_2" data-name="Livello 2" xmlns="http://www.w3.org/2000/svg" viewBox="0 0 1004.86 194.14">
  <defs>
    <style>
      .cls-1 {
        fill: #fff;
      }
    </style>
  </defs>
  <g id="Livello_1-2" data-name="Livello 1">
    <g>
      <g>
        <path class="cls-1" d="M229.21,167.09c-1.11-.47-2.31-.69-3.51-.64h-7.68v10.43h7.68c1.49.07,2.97-.34,4.22-1.17,1.18-1.02,1.79-2.56,1.62-4.12.21-1.83-.71-3.61-2.32-4.51M214.13,162.95h12.85c4.38-.31,8.19,2.98,8.5,7.36.03.42.03.85,0,1.27.04,2.23-.7,4.4-2.09,6.13-1.6,1.84-3.97,2.8-6.39,2.61h-8.96v12.72h-3.89v-30.09Z"/>
        <path class="cls-1" d="M243.3,180.71l4.59-13.3,4.42,13.3h-9.01ZM245.87,162.95l-10.81,30.09h3.99l3.12-9.01h11.26l3,9.01h4.26l-10.42-30.09h-4.39Z"/>
        <path class="cls-1" d="M284.48,165.14c1.89,1.81,3.06,4.24,3.3,6.84h-3.79c-.33-1.77-1.21-3.38-2.52-4.61-1.5-1.21-3.39-1.82-5.31-1.7-2.61-.08-5.1,1.08-6.72,3.12-1.92,2.81-2.83,6.19-2.56,9.59-.13,3.03.67,6.03,2.31,8.58,1.58,2.21,4.19,3.46,6.9,3.29,2.61.11,5.08-1.22,6.43-3.47.87-1.47,1.47-3.1,1.75-4.79h3.79c-.24,2.94-1.4,5.73-3.32,7.97-2.3,2.6-5.65,4.02-9.11,3.87-3.08.08-6.07-1.06-8.31-3.18-2.95-2.8-4.42-7.13-4.42-12.98-.17-3.92,1-7.77,3.32-10.93,2.35-3.06,6.05-4.8,9.91-4.63,3.08-.19,6.1.9,8.36,3.01"/>
        <polygon class="cls-1" points="311.22 162.95 296.86 177.68 296.86 162.95 293.07 162.95 293.07 193.04 296.86 193.04 296.86 182.56 301.54 177.92 311.82 193.04 316.91 193.04 304.39 175.1 316.66 162.95 311.22 162.95"/>
        <path class="cls-1" d="M330.16,167.42l4.42,13.3h-9.01l4.59-13.3ZM328.13,162.95l-10.81,30.09h3.99l3.12-9.01h11.26l3,9.01h4.26l-10.42-30.09h-4.39Z"/>
        <path class="cls-1" d="M365.55,163.81c2.94,1.77,4.86,4.84,5.16,8.26h-3.85c-.29-1.91-1.31-3.64-2.85-4.8-1.62-1.05-3.53-1.58-5.45-1.5-2.56-.02-4.98,1.14-6.57,3.14-1.97,2.7-2.91,6.01-2.66,9.34-.14,3.06.63,6.1,2.2,8.74,1.62,2.32,4.36,3.61,7.18,3.37,2.33.07,4.59-.78,6.3-2.37,1.86-2.09,2.78-4.85,2.56-7.64h-9v-3.37h12.6v16.1h-2.5l-.92-3.89c-.97,1.22-2.14,2.29-3.44,3.15-1.96,1.08-4.17,1.61-6.4,1.52-3.23.05-6.33-1.2-8.63-3.46-2.78-3.33-4.19-7.59-3.94-11.92-.23-4.35,1.14-8.62,3.85-12.03,2.34-2.79,5.84-4.36,9.48-4.26,2.4-.06,4.78.5,6.89,1.64"/>
        <rect class="cls-1" x="378.45" y="162.95" width="3.93" height="30.09"/>
        <polygon class="cls-1" points="407.57 162.95 407.57 187.27 393.26 162.95 388.68 162.95 388.68 193.04 392.4 193.04 392.4 168.76 406.92 193.04 411.28 193.04 411.28 162.95 407.57 162.95"/>
        <path class="cls-1" d="M436.68,163.81c2.95,1.77,4.87,4.83,5.17,8.26h-3.85c-.28-1.91-1.31-3.64-2.85-4.8-1.62-1.05-3.52-1.58-5.45-1.5-2.56-.02-4.98,1.14-6.58,3.14-1.97,2.7-2.91,6.01-2.67,9.34-.13,3.06.63,6.1,2.2,8.74,1.62,2.32,4.35,3.61,7.18,3.37,2.33.08,4.6-.77,6.31-2.37,1.85-2.09,2.78-4.86,2.55-7.64h-8.99v-3.37h12.59v16.1h-2.5l-.94-3.87c-.97,1.22-2.13,2.29-3.44,3.15-1.96,1.08-4.17,1.61-6.4,1.52-3.23.05-6.34-1.2-8.63-3.46-2.78-3.33-4.19-7.59-3.94-11.92-.23-4.34,1.14-8.62,3.85-12.03,2.34-2.79,5.83-4.36,9.47-4.26,2.4-.07,4.78.49,6.9,1.62"/>
        <path class="cls-1" d="M462.36,183.33c.01,1.46.4,2.89,1.11,4.16,1.48,2.11,4,3.26,6.57,2.99,1.31.02,2.61-.2,3.84-.65,2.03-.57,3.41-2.44,3.35-4.55.14-1.33-.4-2.64-1.42-3.5-1.38-.86-2.9-1.46-4.5-1.78l-3.77-.93c-1.85-.35-3.61-1.03-5.22-1.99-1.79-1.29-2.78-3.42-2.65-5.62-.09-2.48.85-4.89,2.6-6.66,2.01-1.83,4.67-2.77,7.38-2.6,2.67-.08,5.29.73,7.46,2.29,2.17,1.78,3.32,4.51,3.07,7.3h-3.65c-.09-1.32-.5-2.59-1.2-3.7-1.42-1.7-3.58-2.58-5.78-2.36-1.72-.17-3.44.39-4.74,1.52-.93.93-1.45,2.2-1.45,3.53-.08,1.31.58,2.56,1.71,3.24,1.62.74,3.31,1.29,5.05,1.64l3.9.97c1.57.32,3.06.97,4.35,1.91,1.81,1.5,2.8,3.77,2.65,6.12.25,2.82-1.04,5.55-3.37,7.15-2.36,1.46-5.09,2.21-7.86,2.15-3,.17-5.95-.86-8.17-2.87-2.03-2.04-3.08-4.85-2.9-7.72h3.64Z"/>
        <path class="cls-1" d="M506.71,186.43c1.56-2.7,2.35-5.77,2.29-8.89.15-3.07-.79-6.1-2.65-8.55-1.77-2.16-4.45-3.36-7.24-3.24-2.78-.08-5.45,1.1-7.27,3.21-2.06,2.71-3.06,6.07-2.81,9.46-.1,3,.75,5.95,2.42,8.44,1.85,2.41,4.8,3.7,7.82,3.44,3.01.22,5.89-1.28,7.44-3.87M510.14,167.25c2.01,3.02,3.01,6.6,2.85,10.22.15,3.99-.99,7.92-3.27,11.21-4.86,6.05-13.7,7.01-19.74,2.15-.57-.46-1.1-.95-1.59-1.49-2.35-3.25-3.53-7.19-3.37-11.19-.11-3.7.9-7.34,2.89-10.45,2.41-3.68,6.59-5.81,10.98-5.57,4.38-.32,8.62,1.62,11.25,5.12"/>
        <polygon class="cls-1" points="517.63 162.95 517.62 193.04 535.91 193.04 535.91 189.46 521.51 189.46 521.51 162.95 517.63 162.95"/>
        <path class="cls-1" d="M544.09,162.95v18.6c-.07,1.89.34,3.76,1.18,5.45,1.14,2.17,3.46,3.46,5.9,3.28,2.77.29,5.44-1.1,6.77-3.55.71-1.63,1.04-3.41.97-5.19v-18.6h3.93v16.9c.14,2.92-.34,5.83-1.43,8.55-1.75,3.64-5.06,5.45-9.92,5.45s-8.16-1.81-9.9-5.45c-1.08-2.72-1.57-5.63-1.43-8.55v-16.9h3.92Z"/>
        <polygon class="cls-1" points="566.37 162.95 566.37 166.54 576.04 166.54 576.04 193.04 579.97 193.04 579.97 166.54 589.64 166.54 589.64 162.95 566.37 162.95"/>
        <rect class="cls-1" x="594.09" y="162.95" width="3.93" height="30.09"/>
        <path class="cls-1" d="M624.55,186.43c1.56-2.7,2.36-5.77,2.3-8.89.15-3.07-.79-6.1-2.65-8.55-1.77-2.16-4.45-3.36-7.24-3.24-2.78-.08-5.45,1.1-7.27,3.21-2.06,2.71-3.06,6.07-2.81,9.47-.1,3,.74,5.95,2.41,8.44,1.85,2.41,4.8,3.7,7.83,3.43,3.01.22,5.88-1.28,7.43-3.87h0ZM627.97,167.25c2.01,3.02,3.01,6.6,2.85,10.22.15,3.99-.99,7.92-3.26,11.21-4.86,6.05-13.7,7.01-19.74,2.15-.57-.46-1.1-.95-1.59-1.49-2.34-3.25-3.53-7.19-3.37-11.19-.11-3.7.9-7.34,2.89-10.45,2.4-3.68,6.59-5.8,10.98-5.57,4.38-.32,8.62,1.62,11.25,5.12"/>
        <polygon class="cls-1" points="654.34 162.95 654.34 187.27 640.03 162.95 635.45 162.95 635.45 193.04 639.17 193.04 639.17 168.76 653.69 193.04 658.05 193.04 658.05 162.95 654.34 162.95"/>
        <path class="cls-1" d="M666.88,183.33c.02,1.46.4,2.89,1.11,4.16,1.48,2.11,4,3.26,6.57,2.99,1.31.02,2.6-.2,3.83-.65,2.03-.57,3.41-2.44,3.35-4.55.14-1.33-.4-2.64-1.42-3.5-1.38-.86-2.9-1.46-4.5-1.78l-3.77-.93c-1.85-.35-3.61-1.03-5.22-1.99-1.79-1.29-2.78-3.42-2.65-5.62-.09-2.48.85-4.89,2.6-6.66,2.01-1.83,4.67-2.77,7.38-2.6,2.67-.08,5.3.73,7.46,2.29,2.16,1.78,3.31,4.51,3.07,7.3h-3.65c-.09-1.32-.51-2.59-1.2-3.7-1.42-1.7-3.59-2.58-5.79-2.36-1.72-.17-3.43.39-4.74,1.52-.93.93-1.45,2.2-1.45,3.53-.09,1.31.58,2.56,1.7,3.24,1.62.74,3.31,1.29,5.05,1.64l3.9.97c1.57.32,3.06.97,4.35,1.91,1.81,1.5,2.8,3.77,2.66,6.11.25,2.82-1.04,5.55-3.37,7.15-2.36,1.47-5.09,2.21-7.87,2.15-3,.17-5.94-.86-8.17-2.87-2.02-2.04-3.08-4.85-2.9-7.72h3.65Z"/>
        <path class="cls-1" d="M2.63,3.51h166.99L2.63,186.28V3.51ZM0,.87v192.2L175.6.87H0Z"/>
        <polygon class="cls-1" points="15.63 193 191.53 193.05 191.53 .87 15.63 193"/>
        <rect class="cls-1" x="214.12" y=".87" width="35.26" height="138.06"/>
        <polygon class="cls-1" points="335.91 107.96 295.05 107.96 295.05 .88 259.79 .88 259.79 138.93 335.91 138.93 335.91 107.96"/>
        <path class="cls-1" d="M393.03,64.68h-11.3V31.84h10c7.64,0,23.32,0,23.32,16.23s-15.3,16.61-22.02,16.61M434.11,10.95c-7.46-6.16-16.97-10.08-42.53-10.08h-43.61v138.06h33.76v-43.28h13.77c21.45,0,30.78-3.92,40.29-11.94,8.77-7.46,14.55-22.2,14.55-36.2.31-14-5.64-27.41-16.24-36.56"/>
        <path class="cls-1" d="M702.84,18.05c-4.43.12-8.12-3.38-8.23-7.81-.12-4.43,3.38-8.11,7.81-8.23,4.43-.12,8.11,3.38,8.23,7.81v.21c.04,4.36-3.45,7.94-7.81,8.02M702.89,0c-5.54-.06-10.08,4.39-10.13,9.93-.06,5.54,4.39,10.07,9.93,10.13,5.54.06,10.07-4.39,10.13-9.93v-.1c0-5.5-4.43-9.97-9.93-10.03"/>
        <path class="cls-1" d="M702.65,9.4h-1.33v-3.13h1.48c.58,0,1.75.03,1.75,1.44,0,1.7-1.33,1.7-1.92,1.7h0ZM705.53,10.19c1.12-.41,1.85-1.5,1.8-2.7,0-2.25-1.93-3.13-4.07-3.13h-4.69v11.13h2.77v-4.28h1.09c1.75,0,1.91.99,1.99,1.62.05.9.17,1.79.37,2.67h2.7c-.26-.88-.37-1.8-.35-2.72.11-1.13-.55-2.19-1.6-2.59"/>
        <path class="cls-1" d="M503.46,70.28h-12.5V31.84h12.87c13.62,0,22.76,6.16,22.76,18.67,0,6.71-2.43,19.76-23.13,19.76h0ZM647.46,45.31h.57v42.61h-35.86l35.29-42.61ZM584.33,120.49h63.7v18.44h37.6l-.05-138.05h-41.44l-99.71,114.08-18.39-23.06c26.13-4.28,34.32-27.6,34.32-43.47,0-14.17-5.59-28.72-16.97-37.68-8.96-6.9-18.28-9.9-42.54-9.9h-43.65v138.06h33.77v-44.59h.37l31.9,44.59h46.08l15.01-18.44Z"/>
      </g>
      <g>
        <polygon class="cls-1" points="925.31 .87 865.05 133.67 837 133.67 887.63 23.61 816.97 23.61 816.97 .87 925.31 .87"/>
        <path class="cls-1" d="M977.97,118.07c0-4.65-.47-9.73-1.41-15.27-.94-5.53-2.58-10.68-4.9-15.44-2.32-4.75-5.39-8.74-9.21-11.95-3.82-3.21-8.55-4.81-14.19-4.81s-10.02,1.63-13.78,4.9c-3.76,3.27-6.83,7.31-9.21,12.12-2.38,4.81-4.09,9.99-5.15,15.52-1.05,5.53-1.58,10.52-1.58,14.94,0,4.65.55,9.54,1.66,14.69,1.1,5.15,2.85,9.93,5.23,14.36,2.38,4.43,5.45,8.08,9.21,10.95,3.76,2.88,8.3,4.32,13.61,4.32s9.85-1.44,13.61-4.32c3.76-2.88,6.83-6.5,9.21-10.87,2.38-4.37,4.12-9.16,5.23-14.36,1.1-5.2,1.66-10.12,1.66-14.77M1004.86,118.07c0,8.19-1.27,16.32-3.82,24.4-2.55,8.08-6.25,15.3-11.12,21.66-4.87,6.36-10.82,11.51-17.85,15.44-7.03,3.93-14.97,5.9-23.82,5.9s-16.77-1.97-23.74-5.9c-6.97-3.93-12.89-9.07-17.76-15.44-4.87-6.36-8.6-13.58-11.2-21.66-2.6-8.08-3.9-16.21-3.9-24.4s1.22-16.99,3.65-25.4c2.43-8.41,6-15.99,10.7-22.74,4.7-6.75,10.59-12.2,17.68-16.35,7.08-4.15,15.27-6.23,24.57-6.23s17.46,2.1,24.48,6.31c7.03,4.21,12.92,9.68,17.68,16.43,4.76,6.75,8.35,14.33,10.79,22.74,2.43,8.41,3.65,16.82,3.65,25.23"/>
        <g>
          <path class="cls-1" d="M823.55,166.14h-3.57v-14.45l-2.99,1.15v-3.02l6.57-2.44v18.76Z"/>
          <path class="cls-1" d="M841.38,156.92c0,1.43-.18,2.73-.54,3.91s-.87,2.18-1.52,3.02c-.65.84-1.44,1.49-2.37,1.95-.93.46-1.97.69-3.12.69-1.31,0-2.44-.24-3.41-.7-.97-.47-1.88-1.21-2.72-2.22l2.4-2.42c.43.64.95,1.16,1.57,1.54.62.38,1.31.58,2.07.58.52,0,1.01-.12,1.45-.37.45-.25.83-.58,1.17-1,.33-.42.59-.92.77-1.49.18-.57.28-1.17.28-1.8-.41.32-.93.58-1.54.78-.62.2-1.21.3-1.77.3-.92,0-1.8-.15-2.63-.46s-1.56-.73-2.19-1.28c-.63-.54-1.13-1.2-1.5-1.96-.37-.76-.55-1.6-.55-2.52,0-.78.18-1.54.53-2.27.35-.73.83-1.38,1.44-1.95.61-.57,1.33-1.02,2.15-1.36.83-.34,1.73-.51,2.7-.51s1.82.17,2.71.5c.88.33,1.67.87,2.36,1.61s1.24,1.73,1.66,2.95c.41,1.22.62,2.72.62,4.48ZM837.58,153.65c0-.41-.09-.81-.28-1.18s-.43-.69-.75-.97c-.32-.28-.68-.5-1.11-.66-.42-.16-.86-.24-1.33-.24s-.92.08-1.33.24c-.41.16-.76.38-1.06.66-.3.28-.53.6-.7.97s-.25.76-.25,1.18.08.81.25,1.18.4.69.7.96c.3.27.65.48,1.06.64s.85.24,1.33.24.9-.08,1.33-.24c.42-.16.79-.38,1.11-.64.31-.27.56-.59.75-.96s.28-.76.28-1.18Z"/>
          <path class="cls-1" d="M857.61,159.92c0,.97-.18,1.86-.54,2.66-.36.81-.85,1.5-1.46,2.07s-1.33,1.03-2.15,1.35c-.82.32-1.69.49-2.62.49-1.32,0-2.56-.24-3.72-.72s-2.22-1.3-3.19-2.47l2.44-2.47c.17.21.37.45.61.7.24.25.51.49.83.7.31.21.67.4,1.06.54s.83.22,1.33.22c.55,0,1.06-.08,1.51-.24s.85-.38,1.18-.66.59-.61.77-.99c.18-.38.28-.8.28-1.24,0-.49-.11-.93-.32-1.31-.22-.38-.5-.71-.86-.98s-.78-.47-1.26-.61c-.48-.14-.98-.21-1.5-.21-.6,0-1.16.08-1.67.23-.51.15-1.04.43-1.58.83l-1.8-1.84.9-8.28,10.35.02v3.13h-7.56l-.41,3.48c.38-.18.83-.32,1.33-.4s.97-.13,1.42-.13c.97,0,1.86.15,2.67.46s1.52.73,2.11,1.28,1.05,1.19,1.38,1.94.5,1.56.5,2.43Z"/>
          <path class="cls-1" d="M873.6,159.92c0,.97-.18,1.86-.54,2.66-.36.81-.85,1.5-1.46,2.07s-1.33,1.03-2.15,1.35c-.82.32-1.69.49-2.62.49-1.32,0-2.56-.24-3.72-.72s-2.22-1.3-3.19-2.47l2.44-2.47c.17.21.37.45.61.7.24.25.51.49.83.7.31.21.67.4,1.06.54s.83.22,1.33.22c.55,0,1.06-.08,1.51-.24s.85-.38,1.18-.66.59-.61.77-.99c.18-.38.28-.8.28-1.24,0-.49-.11-.93-.32-1.31-.22-.38-.5-.71-.86-.98s-.78-.47-1.26-.61c-.48-.14-.98-.21-1.5-.21-.6,0-1.16.08-1.67.23-.51.15-1.04.43-1.58.83l-1.8-1.84.9-8.28,10.35.02v3.13h-7.56l-.41,3.48c.38-.18.83-.32,1.33-.4s.97-.13,1.42-.13c.97,0,1.86.15,2.67.46s1.52.73,2.11,1.28,1.05,1.19,1.38,1.94.5,1.56.5,2.43Z"/>
        </g>
        <g>
          <path class="cls-1" d="M830.53,193.8h-13.55l7.1-8.41c.28-.34.56-.69.84-1.05.28-.36.54-.73.77-1.12.23-.38.41-.76.55-1.14.14-.38.21-.74.21-1.09,0-.81-.26-1.46-.77-1.93s-1.15-.72-1.9-.72c-.86,0-1.63.22-2.3.66s-1.24,1-1.71,1.69l-2.49-2.47c.81-1.03,1.74-1.82,2.77-2.37,1.03-.55,2.3-.83,3.83-.83.8,0,1.57.12,2.32.36.75.24,1.41.6,1.99,1.07s1.05,1.07,1.41,1.77.53,1.52.53,2.44c0,.62-.08,1.2-.25,1.75-.17.55-.4,1.09-.68,1.6-.28.51-.62,1.02-1,1.52-.38.5-.78,1.01-1.2,1.53l-2.63,3.27h6.18v3.46Z"/>
          <path class="cls-1" d="M848.78,184.78c0,1.14-.18,2.27-.53,3.39s-.87,2.12-1.54,3.01c-.68.88-1.5,1.6-2.48,2.14s-2.08.82-3.31.82-2.33-.27-3.3-.82c-.97-.54-1.79-1.26-2.47-2.14-.68-.88-1.2-1.89-1.56-3.01s-.54-2.25-.54-3.39.17-2.36.51-3.53c.34-1.17.83-2.22,1.49-3.16.65-.94,1.47-1.69,2.46-2.27.98-.58,2.12-.86,3.41-.86s2.42.29,3.4.88,1.79,1.34,2.46,2.28c.66.94,1.16,1.99,1.5,3.16.34,1.17.51,2.34.51,3.5ZM845.05,184.78c0-.64-.07-1.35-.2-2.12s-.36-1.48-.68-2.14-.75-1.21-1.28-1.66c-.53-.45-1.19-.67-1.97-.67s-1.39.23-1.91.68c-.52.45-.95,1.01-1.28,1.68-.33.67-.57,1.39-.72,2.15s-.22,1.46-.22,2.07c0,.64.08,1.33.23,2.04.15.71.4,1.38.73,1.99.33.62.76,1.12,1.28,1.52.52.4,1.15.6,1.89.6s1.37-.2,1.89-.6.95-.9,1.28-1.51.57-1.27.73-1.99c.15-.72.23-1.41.23-2.05Z"/>
        </g>
        <g>
          <path class="cls-1" d="M862.68,193.8h-13.55l7.1-8.41c.28-.34.56-.69.84-1.05.28-.36.54-.73.77-1.12.23-.38.41-.76.55-1.14.14-.38.21-.74.21-1.09,0-.81-.26-1.46-.77-1.93s-1.15-.72-1.9-.72c-.86,0-1.63.22-2.3.66s-1.24,1-1.71,1.69l-2.49-2.47c.81-1.03,1.74-1.82,2.77-2.37,1.03-.55,2.3-.83,3.83-.83.8,0,1.57.12,2.32.36.75.24,1.41.6,1.99,1.07s1.05,1.07,1.41,1.77.53,1.52.53,2.44c0,.62-.08,1.2-.25,1.75-.17.55-.4,1.09-.68,1.6-.28.51-.62,1.02-1,1.52-.38.5-.78,1.01-1.2,1.53l-2.63,3.27h6.18v3.46Z"/>
          <path class="cls-1" d="M878.91,187.57c0,.97-.18,1.86-.54,2.66-.36.81-.85,1.5-1.46,2.07s-1.33,1.03-2.15,1.35c-.82.32-1.69.49-2.62.49-1.32,0-2.56-.24-3.72-.72s-2.22-1.3-3.19-2.47l2.44-2.47c.17.21.37.45.61.7.24.25.51.49.83.7.31.21.67.4,1.06.54s.83.22,1.33.22c.55,0,1.06-.08,1.51-.24s.85-.38,1.18-.66.59-.61.77-.99c.18-.38.28-.8.28-1.24,0-.49-.11-.93-.32-1.31-.22-.38-.5-.71-.86-.98s-.78-.47-1.26-.61c-.48-.14-.98-.21-1.5-.21-.6,0-1.16.08-1.67.23-.51.15-1.04.43-1.58.83l-1.8-1.84.9-8.28,10.35.02v3.13h-7.56l-.41,3.48c.38-.18.83-.32,1.33-.4s.97-.13,1.42-.13c.97,0,1.86.15,2.67.46s1.52.73,2.11,1.28,1.05,1.19,1.38,1.94.5,1.56.5,2.43Z"/>
        </g>
        <rect class="cls-1" x="760.3" width="9.2" height="193.96"/>
      </g>
    </g>
  </g>
</svg>